<?xml version="1.0" standalone="no"?>
<!DOCTYPE svg PUBLIC "-//W3C//DTD SVG 20010904//EN"
 "http://www.w3.org/TR/2001/REC-SVG-20010904/DTD/svg10.dtd">
<svg version="1.0" xmlns="http://www.w3.org/2000/svg"
 width="1495.000000pt" height="591.000000pt" viewBox="0 0 1495.000000 591.000000"
 preserveAspectRatio="xMidYMid meet">

<g transform="translate(0.000000,591.000000) scale(0.100000,-0.100000)"
fill="#000000" stroke="none">
<path d="M0 2955 l0 -2955 2209 0 c2005 0 2209 1 2215 16 8 20 8 5858 0 5878
-6 15 -210 16 -2215 16 l-2209 0 0 -2955z m2715 2693 c19 -9 25 -17 21 -32 -3
-12 -185 -498 -404 -1081 l-400 -1060 1144 -3 c905 -2 1144 -5 1144 -15 0 -6
-568 -723 -1261 -1592 -694 -869 -1267 -1589 -1275 -1599 -19 -28 -68 -11 -72
25 -2 14 154 509 347 1100 l349 1074 -1045 3 c-1009 2 -1044 3 -1041 21 4 25
2440 3171 2455 3171 7 0 24 -5 38 -12z"/>
<path d="M4960 3740 l0 -2150 883 0 c717 0 901 3 984 15 327 46 585 166 779
359 206 207 308 457 307 756 -1 423 -219 787 -622 1037 -1 1 42 46 96 100 160
158 262 334 318 548 162 626 -150 1248 -717 1429 -177 56 -178 56 -1140 56
l-888 0 0 -2150z m1865 1716 c198 -58 360 -198 441 -383 78 -176 88 -432 24
-617 -81 -238 -242 -396 -485 -477 l-70 -24 -677 -3 -678 -3 0 766 0 766 693
-4 c627 -3 698 -5 752 -21z m-165 -1926 c282 -25 509 -133 663 -316 69 -81
139 -219 163 -319 23 -95 23 -270 1 -354 -76 -286 -318 -469 -702 -532 -45 -8
-308 -13 -742 -16 l-673 -5 0 776 0 776 588 0 c323 0 639 -5 702 -10z"/>
<path d="M8150 3740 l0 -2151 928 4 c919 3 928 3 1027 26 432 97 726 305 883
622 209 425 109 954 -248 1308 -69 68 -191 163 -269 208 -2 1 42 46 96 100
144 141 233 280 293 461 107 322 87 667 -54 957 -147 299 -381 490 -716 583
l-95 27 -922 3 -923 3 0 -2151z m1865 1709 c250 -78 424 -273 480 -537 19 -89
19 -265 -1 -359 -40 -197 -151 -367 -307 -475 -82 -56 -157 -87 -262 -109 -82
-17 -144 -19 -727 -19 l-638 0 0 766 0 765 688 -3 687 -4 80 -25z m10 -1952
c399 -108 655 -414 655 -781 0 -122 -18 -203 -64 -294 -113 -220 -334 -358
-656 -407 -76 -12 -226 -15 -747 -15 l-653 0 0 765 0 766 683 -3 682 -4 100
-27z"/>
<path d="M13185 5883 c-579 -33 -1104 -298 -1483 -748 -552 -656 -661 -1609
-272 -2385 292 -581 824 -991 1460 -1125 104 -22 161 -28 337 -32 294 -8 465
16 715 97 312 102 587 276 836 528 l124 125 -147 147 -146 146 -112 -114
c-256 -261 -541 -419 -887 -493 -143 -31 -453 -34 -605 -5 -809 150 -1395 870
-1395 1711 0 751 475 1424 1168 1654 189 63 274 75 517 75 248 0 332 -13 526
-80 257 -89 441 -205 651 -414 l148 -145 145 145 144 145 -90 98 c-328 353
-766 584 -1230 651 -112 15 -307 25 -404 19z"/>
<path d="M4970 615 l0 -615 363 2 362 3 3 57 3 58 -308 2 -308 3 -3 172 -2
173 310 0 310 0 0 55 0 55 -307 2 -308 3 -3 268 -2 267 310 0 310 0 0 55 0 55
-365 0 -365 0 0 -615z"/>
<path d="M6240 615 l0 -615 395 0 395 0 0 60 0 60 -337 2 -338 3 -3 553 -2
552 -55 0 -55 0 0 -615z"/>
<path d="M7572 618 l3 -613 363 -3 362 -2 0 60 0 60 -305 0 -305 0 0 175 0
175 305 0 305 0 0 55 0 55 -305 0 -305 0 0 270 0 270 305 0 305 0 0 55 0 55
-365 0 -365 0 2 -612z"/>
<path d="M9300 1214 c-144 -38 -266 -125 -348 -248 -78 -117 -97 -184 -97
-346 0 -162 19 -229 97 -346 88 -131 206 -212 373 -254 100 -25 124 -25 231 0
109 26 210 78 286 149 l59 54 -40 40 -39 40 -54 -48 c-67 -60 -175 -113 -262
-126 -277 -43 -546 198 -546 491 0 293 273 537 548 492 85 -14 194 -68 260
-127 l54 -48 39 40 40 40 -61 57 c-71 65 -172 120 -262 141 -79 19 -206 18
-278 -1z"/>
<path d="M10400 1175 l0 -55 208 -2 207 -3 3 -557 2 -558 55 0 55 0 2 558 3
557 213 3 212 2 0 55 0 55 -480 0 -480 0 0 -55z"/>
<path d="M11902 618 l3 -613 53 -3 52 -3 0 215 0 216 118 0 c64 0 133 3 152 6
l35 5 150 -220 150 -221 57 0 c31 0 59 3 61 7 3 5 -66 111 -153 237 l-159 229
44 29 c55 37 97 89 133 165 24 51 27 69 26 158 0 79 -5 112 -23 157 -44 112
-165 211 -289 237 -29 6 -134 11 -233 11 l-179 0 2 -612z m456 473 c214 -95
215 -427 2 -525 -38 -17 -69 -21 -197 -24 l-153 -4 0 292 0 292 148 -4 c127
-3 154 -7 200 -27z"/>
<path d="M13282 618 l3 -613 55 0 55 0 3 613 2 612 -60 0 -60 0 2 -612z"/>
<path d="M14350 1214 c-214 -56 -382 -227 -436 -444 -23 -91 -15 -271 16 -359
50 -141 176 -282 305 -342 67 -32 203 -69 252 -69 61 0 206 41 276 77 39 21
97 62 129 92 l59 54 -40 40 -39 40 -54 -48 c-67 -60 -175 -113 -262 -126 -234
-37 -474 131 -531 372 -66 283 114 562 394 609 135 23 289 -26 399 -125 l54
-48 39 40 40 40 -59 54 c-70 66 -176 123 -263 144 -80 18 -207 18 -279 -1z"/>
</g>
</svg>
